<?xml version="1.0" encoding="iso-8859-1"?>
<!-- Uploaded to: SVG Repo, www.svgrepo.com, Generator: SVG Repo Mixer Tools -->
<svg height="800px" width="800px" version="1.1" id="Layer_1" xmlns="http://www.w3.org/2000/svg" xmlns:xlink="http://www.w3.org/1999/xlink" 
	 viewBox="0 0 511.861 511.861" xml:space="preserve">
<path style="fill:#EAC6BB;" d="M450.777,314.256c-3.343-0.266-7.029-0.391-11.044-0.391c-26.242,0-67.119,5.576-123.103,15.465
	c-6.982-19.869-51.258-28.586-51.258-28.586s-95.533-5.201-156.515-8.528c-3.889-0.219-7.654-0.328-11.277-0.328
	C16.808,291.888,0,342.311,0,342.311v52.233c0.031,29.944,92.331,44.611,92.644,44.674c73.306,14.479,163.418,19.322,163.418,19.322
	s246.932-97.001,253.414-102.672C515.944,350.199,513.118,319.254,450.777,314.256z"/>
<path style="fill:#DBADA2;" d="M385.812,318.349c-19.399,2.562-42.003,6.201-67.854,10.747c-3.311,1.468-6.701,2.967-10.184,4.451
	c-67.752,28.897-115.691,34.974-143.948,34.974c-5.889,0-10.653,4.78-10.653,10.653c0,5.904,4.764,10.668,10.653,10.668
	c44.096,0,95.454-12.387,152.648-36.816C351.073,338.233,376.877,323.613,385.812,318.349z"/>
<path style="fill:#5E9CEA;" d="M255.923,53.32c-5.249,4.187-71.885,60.7-70.198,120.011c0.484,43.33,31.288,71.119,70.198,71.931
	c38.933-0.812,69.736-28.601,70.22-71.931C327.83,114.02,261.186,57.506,255.923,53.32z"/>
<path style="fill:#4B89DA;" d="M255.923,53.32c-1.125,0.906-5.124,4.249-10.653,9.513c20.15,19.182,60.864,63.98,59.551,110.498
	c-0.453,39.285-25.805,65.792-59.551,71.01c3.468,0.53,7.029,0.843,10.653,0.921c38.933-0.812,69.736-28.601,70.22-71.931
	C327.83,114.02,261.186,57.506,255.923,53.32z"/>
</svg>