<?xml version="1.0" encoding="iso-8859-1"?>
<!-- Uploaded to: SVG Repo, www.svgrepo.com, Generator: SVG Repo Mixer Tools -->
<svg version="1.1" id="Layer_1" xmlns="http://www.w3.org/2000/svg" xmlns:xlink="http://www.w3.org/1999/xlink" 
	 viewBox="0 0 512.001 512.001" xml:space="preserve">
<path style="fill:#00ABD5;" d="M255.829,12.785c0,0,189.88,216.252,0,216.252S255.829,12.785,255.829,12.785z"/>
<path style="fill:#FFE1B2;" d="M450.982,313.427c42.723-52.322,52.744-5.274,52.744-5.274s-42.195,100.847-116.037,116.67
	c-73.841,15.823-247.898,9.916-247.898,9.916l-58.018,47.469V355.622l31.646-36.921c0,0,10.549-10.549,26.372-15.191
	c15.191-4.536,205.703-31.646,205.703-31.646s31.646-5.274,31.646,15.823c0,21.098-36.921,31.646-36.921,31.646L234.73,345.705
	c0,0-15.823,4.641-15.823,15.191l21.098,15.823l126.586,0.633C366.592,377.353,403.512,371.446,450.982,313.427z"/>
<polygon style="fill:#AFB6BB;" points="81.773,482.208 81.773,503.306 7.931,503.306 7.931,302.878 81.773,302.878 81.773,355.622 
	"/>
<path style="fill:#FFD7A3;" d="M240.006,376.72l-21.098-15.823c0-10.549,15.823-15.191,15.823-15.191l19.094-4.773
	c-23.869-13.552-44.835-29.141-62.281-46.354c-26.517,4.123-47.162,7.561-51.753,8.932c-15.823,4.641-26.372,15.191-26.372,15.191
	l-31.646,36.921v126.586l58.018-47.469c0,0,174.056,5.908,247.898-9.916c20.522-4.398,38.502-15.458,53.908-29.001
	c-35.591-2.985-69.493-9.351-100.924-18.598L240.006,376.72z"/>
<path style="fill:#009DD3;" d="M276.926,39.042c-12.105-16.012-21.098-26.258-21.098-26.258s-189.88,216.252,0,216.252
	c7.72,0,14.594-0.48,21.098-1.165C158.279,215.356,235.642,93.65,276.926,39.042z"/>
<path d="M511.483,306.499c-0.111-0.525-1.168-5.271-3.898-10.49c-4.106-7.853-9.974-12.899-16.969-14.592
	c-13.333-3.228-28.31,5.6-45.772,26.986c-23.308,28.486-43.74,43.601-56.777,51.264c-12.122,7.126-20.242,9.288-22.245,9.748
	l-123.156-0.615l-14.278-10.708c2.118-2.073,5.943-3.959,8.458-4.741l105.298-26.325l0.255-0.068
	c4.368-1.248,42.672-12.952,42.672-39.272c0-7.105-2.649-13.103-7.658-17.348c-11.187-9.477-30.467-6.746-33.12-6.315
	c-19.959,2.84-191.478,27.32-206.733,31.877c-17.565,5.152-29.259,16.704-29.748,17.193l-18.108,21.107v-39.253H0v216.289h89.704
	v-25.27l52.812-43.209c7.489,0.22,28.373,0.772,55.245,0.941l0.099-15.861c-33.474-0.209-57.558-1.016-57.798-1.025l-2.982-0.102
	l-47.375,38.762V358.556l29.492-34.407c1.324-1.242,10.318-9.359,22.866-13.039c10.729-3.204,128.206-20.531,204.55-31.394
	l0.169-0.025c4.699-0.761,15.869-1.087,20.392,2.762c0.947,0.808,2.038,2.133,2.038,5.235c0,12.213-22.875,21.603-31.054,23.989
	l-105.348,26.337l-0.309,0.084c-0.513,0.15-5.144,1.554-9.891,4.529c-9.613,6.024-11.632,13.261-11.632,18.271v3.965l26.368,19.775
	l129.858,0.649l0.642-0.103c1.629-0.261,40.459-7.07,89.282-66.741c12.28-15.041,23.401-23.118,29.733-21.615
	c4.328,1.027,7.179,6.935,8.461,10.72c-6.933,15.202-46.522,96.07-109.292,109.521c-40.756,8.733-113.383,10.702-167.134,10.814
	l0.033,15.861c54.51-0.114,128.324-2.144,170.423-11.166c32.134-6.886,63.415-30.178,90.462-67.358
	c20.093-27.622,30.786-52.942,31.231-54.005l0.957-2.288L511.483,306.499z M15.861,310.808h57.981v171.399v13.167H15.861V310.808z"
	/>
<rect x="36.922" y="329.248" style="fill:#FFFFFF;" width="15.861" height="21.098"/>
<path d="M255.828,236.967c46.4,0,75.712-12.778,87.121-37.979c12.541-27.7,2.409-68.623-30.114-121.632
	c-23.49-38.287-49.933-68.534-51.047-69.803l-5.96-6.786l-5.96,6.788c-1.111,1.266-27.486,31.436-50.955,69.654l13.516,8.301
	c16.242-26.449,34.333-49.399,43.439-60.46c31.536,37.884,92.105,124.386,72.632,167.399c-8.609,19.017-33.06,28.66-72.672,28.66
	c-37.159,0-61.003-8.477-70.873-25.197c-14.499-24.562,2.018-65.164,18.426-94.901l0.151-0.287l-7.119-3.558l-6.919-3.818
	c-26.771,48.513-32.894,85.734-18.198,110.628C184.221,225.866,212.662,236.967,255.828,236.967z"/>
<rect x="36.922" y="366.173" width="15.861" height="100.211"/>
<path style="fill:#FFFFFF;" d="M245.28,97.175l-5.812-5.397c-0.461,0.497-11.411,12.342-21.734,28.108
	c-14.557,22.233-20.437,40.836-17.475,55.293c2.209,10.782,9.368,19.144,20.702,24.182l6.442-14.494
	c-6.728-2.99-10.416-7.078-11.604-12.865c-4.325-21.065,24.012-57.263,35.294-69.434L245.28,97.175z"/>
</svg>