<?xml version="1.0" encoding="iso-8859-1"?>
<!-- Uploaded to: SVG Repo, www.svgrepo.com, Generator: SVG Repo Mixer Tools -->
<svg fill="#000000" height="800px" width="800px" version="1.1" id="Layer_1" xmlns="http://www.w3.org/2000/svg" xmlns:xlink="http://www.w3.org/1999/xlink" 
	 viewBox="0 0 511.999 511.999" xml:space="preserve">
<g>
	<g>
		<path d="M445.895,263.5c-23.1-23.1-56.566-21.698-77.189-1.076l-47.926,47.927c-1.344-1.771-2.79-3.478-4.367-5.098
			c-10.225-10.51-23.93-16.297-38.591-16.297h-67.688c-23.965,0-46.496,9.333-63.445,26.282l-27.558,27.558l-8.46-8.46
			l-59.222,59.222l25.38,25.38l33.843-33.843l67.681,67.682l-33.84,33.84l25.38,25.38l49.735-49.735h64.353
			c23.968,0,46.502-9.333,63.451-26.282l96.888-96.888C465.036,318.378,466.309,283.915,445.895,263.5z M418.94,313.714
			l-96.888,96.888c-10.17,10.17-23.69,15.769-38.071,15.769h-81.273l-58.195-58.195l27.558-27.558
			c10.17-10.17,23.687-15.769,38.065-15.769h67.688c10.773,0,17.94,8.623,17.94,18.464c0,9.615-8.646,17.43-18.686,17.43h-62.829
			v35.893h62.829c27.038,0,49.955-20.003,53.953-45.772l63.059-63.059c7.2-7.2,18.294-7.078,25.742,0.371
			C426.626,294.974,426.038,306.614,418.94,313.714z"/>
	</g>
</g>
<g>
	<g>
		<path d="M340.575,110.789L263.021,0l-77.552,110.79c-15.641,22.345-20.298,50.208-12.777,76.446
			c7.435,25.939,25.873,46.84,50.589,57.34c12.593,5.351,25.964,8.063,39.74,8.063s27.147-2.712,39.741-8.063
			c24.715-10.501,43.153-31.401,50.589-57.341C360.873,160.996,356.216,133.133,340.575,110.789z M318.846,177.344
			c-4.438,15.484-15.416,27.948-30.121,34.196c-8.13,3.453-16.778,5.205-25.706,5.205s-17.576-1.752-25.704-5.205
			c-14.704-6.248-25.683-18.711-30.122-34.194c-4.523-15.782-1.724-32.539,7.68-45.972l48.147-68.782l48.147,68.782
			C320.572,144.807,323.371,161.562,318.846,177.344z"/>
	</g>
</g>
</svg>